<svg width="20" height="20" viewBox="0 0 20 20" fill="none" xmlns="http://www.w3.org/2000/svg">
<path d="M12.7463 4.62196C12.5299 4.62196 12.3134 4.54222 12.1426 4.37135L9.83016 2.05895L7.51772 4.37135C7.18738 4.7017 6.6406 4.7017 6.31026 4.37135C5.97991 4.04101 5.97991 3.49423 6.31026 3.16389L9.22643 0.247757C9.55677 -0.0825858 10.1035 -0.0825858 10.4339 0.247757L13.35 3.16389C13.6804 3.49423 13.6804 4.04101 13.35 4.37135C13.1792 4.54222 12.9627 4.62196 12.7463 4.62196Z" fill="white"/>
<path d="M9.8309 13.3701C9.36386 13.3701 8.97656 12.9828 8.97656 12.5158V0.930996C8.97656 0.463959 9.36386 0.0766602 9.8309 0.0766602C10.2979 0.0766602 10.6852 0.463959 10.6852 0.930996V12.5158C10.6852 12.9942 10.2979 13.3701 9.8309 13.3701Z" fill="white"/>
<path d="M9.96725 19.9998C4.10081 19.9998 0 15.899 0 10.0326C0 9.56552 0.387299 9.17822 0.854336 9.17822C1.32137 9.17822 1.70867 9.56552 1.70867 10.0326C1.70867 14.8966 5.10323 18.2911 9.96725 18.2911C14.8313 18.2911 18.2258 14.8966 18.2258 10.0326C18.2258 9.56552 18.6131 9.17822 19.0802 9.17822C19.5472 9.17822 19.9345 9.56552 19.9345 10.0326C19.9345 15.899 15.8337 19.9998 9.96725 19.9998Z" fill="white"/>
</svg>
