<svg width="24" height="24" viewBox="0 0 24 24" fill="none" xmlns="http://www.w3.org/2000/svg">
<path d="M3.5 23.9219H18.5C19.4297 23.9192 20.3204 23.5478 20.9765 22.8892C21.6327 22.2306 22.0008 21.3386 22 20.4089V12.8719C22 12.6067 21.8946 12.3523 21.7071 12.1648C21.5196 11.9772 21.2652 11.8719 21 11.8719C20.7348 11.8719 20.4804 11.9772 20.2929 12.1648C20.1054 12.3523 20 12.6067 20 12.8719V20.4089C20.0013 20.8083 19.8441 21.1919 19.5629 21.4756C19.2817 21.7593 18.8994 21.9198 18.5 21.9219H3.5C3.10057 21.9198 2.7183 21.7593 2.43708 21.4756C2.15587 21.1919 1.99867 20.8083 2 20.4089V5.43488C1.99867 5.03545 2.15587 4.6518 2.43708 4.36815C2.7183 4.08449 3.10057 3.92399 3.5 3.92188H11C11.2652 3.92188 11.5196 3.81652 11.7071 3.62898C11.8946 3.44145 12 3.18709 12 2.92188C12 2.65666 11.8946 2.4023 11.7071 2.21477C11.5196 2.02723 11.2652 1.92188 11 1.92188H3.5C2.57031 1.92452 1.67964 2.29591 1.02346 2.95452C0.367281 3.61314 -0.000797091 4.50518 1.29611e-06 5.43488V20.4089C-0.000797091 21.3386 0.367281 22.2306 1.02346 22.8892C1.67964 23.5478 2.57031 23.9192 3.5 23.9219Z" fill="#797979"/>
<path d="M9.45499 10.4655L8.66599 14.0795C8.63027 14.2434 8.63638 14.4137 8.68373 14.5746C8.73109 14.7356 8.81818 14.882 8.93699 15.0005C9.05742 15.116 9.20393 15.2007 9.36408 15.2475C9.52423 15.2944 9.69331 15.3019 9.85699 15.2695L13.463 14.4785C13.6502 14.4374 13.8217 14.3433 13.957 14.2075L23.071 5.09348C23.3496 4.8149 23.5706 4.48416 23.7214 4.12015C23.8722 3.75614 23.9498 3.36599 23.9498 2.97198C23.9498 2.57797 23.8722 2.18782 23.7214 1.82381C23.5706 1.4598 23.3496 1.12906 23.071 0.850482C22.4998 0.304618 21.7401 0 20.95 0C20.1599 0 19.4002 0.304618 18.829 0.850482L9.72899 9.97348C9.59241 10.1078 9.4973 10.2786 9.45499 10.4655ZM20.243 2.26548C20.4332 2.08322 20.6865 1.98148 20.95 1.98148C21.2135 1.98148 21.4667 2.08322 21.657 2.26548C21.842 2.45411 21.9456 2.70778 21.9456 2.97198C21.9456 3.23619 21.842 3.48985 21.657 3.67848L20.95 4.38548L19.536 2.97148L20.243 2.26548ZM11.343 11.1795L18.117 4.38848L19.517 5.79548L12.74 12.5885L10.945 12.9825L11.343 11.1795Z" fill="#797979"/>
</svg>
