<svg width="20" height="19" viewBox="0 0 20 19" fill="none" xmlns="http://www.w3.org/2000/svg">
<path d="M19.8685 17.3279C18.599 15.1337 16.6166 13.4241 14.2405 12.4741C15.4221 11.6014 16.2949 10.3847 16.7353 8.99639C17.1757 7.60805 17.1613 6.11845 16.6943 4.73859C16.2272 3.35873 15.3311 2.15857 14.1329 1.3081C12.9346 0.457644 11.4951 0 10.018 0C8.54103 0 7.10145 0.457644 5.90323 1.3081C4.70501 2.15857 3.80889 3.35873 3.34182 4.73859C2.87474 6.11845 2.86039 7.60805 3.30079 8.99639C3.74119 10.3847 4.61401 11.6014 5.79563 12.4741C3.41952 13.4241 1.43713 15.1337 0.167591 17.3279C0.0889252 17.4525 0.0364949 17.5913 0.013417 17.7362C-0.00966096 17.8812 -0.0029156 18.0292 0.0332522 18.1715C0.06942 18.3138 0.134272 18.4474 0.223952 18.5646C0.313633 18.6817 0.426311 18.7799 0.555288 18.8532C0.684266 18.9266 0.826909 18.9737 0.974738 18.9917C1.12257 19.0097 1.27257 18.9983 1.41581 18.9581C1.55906 18.9179 1.69264 18.8497 1.8086 18.7576C1.92456 18.6655 2.02054 18.5515 2.09083 18.4221C3.76868 15.5662 6.73178 13.8629 10.018 13.8629C13.3043 13.8629 16.2674 15.5671 17.9453 18.4221C18.0976 18.6633 18.3392 18.8368 18.619 18.9057C18.8989 18.9747 19.1949 18.9338 19.4447 18.7917C19.6945 18.6496 19.8783 18.4174 19.9574 18.1443C20.0365 17.8711 20.0046 17.5783 19.8685 17.3279ZM5.20301 6.9328C5.20301 5.995 5.48541 5.07826 6.01449 4.2985C6.54357 3.51874 7.29558 2.911 8.17541 2.55211C9.05524 2.19323 10.0234 2.09933 10.9574 2.28229C11.8914 2.46524 12.7494 2.91684 13.4228 3.57997C14.0962 4.2431 14.5548 5.08797 14.7406 6.00776C14.9264 6.92754 14.831 7.88093 14.4666 8.74735C14.1021 9.61377 13.485 10.3543 12.6931 10.8753C11.9013 11.3963 10.9704 11.6744 10.018 11.6744C8.74147 11.673 7.5176 11.173 6.61492 10.284C5.71225 9.39513 5.20448 8.18992 5.20301 6.9328Z" fill="#0E436B"/>
</svg>
