<svg width="40" height="40" viewBox="0 0 40 40" fill="none" xmlns="http://www.w3.org/2000/svg">
<path d="M24.4838 22.444L23.1262 23.2088C22.9632 23.3006 22.7748 23.3364 22.5895 23.311C22.4043 23.2856 22.2325 23.2002 22.1003 23.0679L17.569 18.5366C17.4368 18.4044 17.3515 18.2326 17.3261 18.0474C17.3007 17.8622 17.3365 17.6737 17.4281 17.5108L18.1929 16.1531C18.3306 15.9088 18.3845 15.6261 18.3464 15.3482C18.3083 15.0704 18.1803 14.8126 17.9819 14.6143L15.9471 12.5795C15.8278 12.4602 15.6862 12.3655 15.5304 12.3009C15.3745 12.2364 15.2075 12.2031 15.0387 12.2031C14.87 12.2031 14.703 12.2364 14.5471 12.3009C14.3913 12.3655 14.2497 12.4602 14.1304 12.5795L13.2065 13.5028C12.6662 14.043 12.3221 14.7484 12.2288 15.5068C12.1355 16.2651 12.2984 17.0329 12.6916 17.688L13.1552 18.4607C15.5226 22.4063 18.8642 25.6774 22.8593 27.9602L22.9508 28.0128C24.3156 28.7926 26.0018 28.5654 27.0945 27.4733L28.0594 26.5085C28.1787 26.3892 28.2733 26.2476 28.3379 26.0917C28.4025 25.9359 28.4357 25.7688 28.4357 25.6001C28.4357 25.4314 28.4025 25.2644 28.3379 25.1085C28.2733 24.9527 28.1787 24.811 28.0594 24.6918L26.0232 22.6556C25.825 22.457 25.5672 22.3288 25.2892 22.2906C25.0112 22.2523 24.7283 22.3062 24.4838 22.444Z" fill="#435490"/>
</svg>
