<svg width="22" height="19" viewBox="0 0 22 19" fill="none" xmlns="http://www.w3.org/2000/svg">
<g opacity="0.35">
<path d="M15.4686 12.1529L15.3076 12.2978L14.8236 11.8622C15.9237 10.597 16.5221 9.03708 16.5236 7.43056C16.5185 5.51324 15.678 3.67423 14.1826 2.30866C13.4105 1.61331 12.4889 1.06705 11.4741 0.703304C10.4594 0.339562 9.37286 0.165987 8.28102 0.193199C7.18917 0.220411 6.11497 0.447838 5.12415 0.861564C4.13333 1.27529 3.24672 1.86662 2.51858 2.59936C1.15772 3.99448 0.437898 5.80349 0.505319 7.65896C0.57274 9.51443 1.42235 11.2772 2.88158 12.5894C4.27253 13.8162 6.11063 14.5476 8.05503 14.6477C9.99944 14.7478 11.9182 14.21 13.4556 13.1339L13.9396 13.5695L13.7396 13.6784L18.9456 18.3638C19.0549 18.4678 19.1867 18.5507 19.3329 18.6073C19.479 18.664 19.6365 18.6932 19.7956 18.6932C19.9547 18.6932 20.1122 18.664 20.2583 18.6073C20.4045 18.5507 20.5362 18.4678 20.6456 18.3638C20.7612 18.2653 20.8533 18.1467 20.9162 18.0152C20.9791 17.8837 21.0116 17.742 21.0116 17.5988C21.0116 17.4555 20.9791 17.3138 20.9162 17.1823C20.8533 17.0508 20.7612 16.9322 20.6456 16.8338L15.4686 12.1529ZM4.20858 11.2448C3.367 10.4843 2.7947 9.51636 2.56395 8.46331C2.3332 7.41026 2.45435 6.31928 2.9121 5.32816C3.36984 4.33703 4.14366 3.49022 5.13582 2.89465C6.12798 2.29909 7.29399 1.98149 8.48658 1.98196C10.0893 1.99347 11.624 2.56687 12.7646 3.58036C13.3272 4.08562 13.7736 4.68573 14.0784 5.34638C14.3831 6.00702 14.5402 6.71524 14.5406 7.43056C14.5411 8.50826 14.1854 9.56174 13.5187 10.4569C12.8519 11.3521 11.9043 12.0485 10.7965 12.4575C9.6886 12.8665 8.47058 12.9695 7.29743 12.7536C6.12427 12.5376 5.04904 12.0124 4.20858 11.2448Z" fill="black"/>
</g>
</svg>
