<svg width="28" height="19" viewBox="0 0 28 19" fill="none" xmlns="http://www.w3.org/2000/svg">
<path d="M3.98034 14.7182C6.7476 16.9615 9.87444 18.2533 13.7948 18.2248C15.5658 18.2372 17.5831 17.9166 19.4302 16.9213C22.2017 15.4277 24.7505 13.64 26.7632 11.1689C27.5724 10.1757 27.6066 8.89903 26.7409 7.96653C24.8442 5.92629 22.6982 4.17402 20.3134 2.74174C16.0027 0.152763 11.6137 0.162734 7.20629 2.51632C5.37425 3.49535 3.75009 4.77564 2.10418 6.03326C1.07741 7.13346 0.569769 7.92363 0.151266 8.84554C0.0231468 9.12898 -0.0406107 9.44625 0.0279815 9.74963C0.265184 10.7991 0.619929 11.3868 1.46691 12.5299C2.12714 13.4204 3.11705 14.0181 3.98034 14.7182ZM12.8529 4.10392C16.246 3.85553 18.9123 6.16198 19.1519 9.5505C19.3619 12.5269 16.8944 15.2793 13.8286 15.4866C10.7036 15.6972 7.96111 13.3046 7.7363 10.169C7.51964 7.14313 9.90163 4.31966 12.8529 4.10392Z" fill="white" fill-opacity="0.99"/>
<path d="M13.4897 12.4366C15.0017 12.4532 16.1738 11.3089 16.1844 9.80804C16.1944 8.33557 15.0501 7.16225 13.5764 7.13385C12.0933 7.10545 10.8904 8.283 10.8829 9.77238C10.8741 11.2497 12.0202 12.4212 13.4897 12.4366Z" fill="white" fill-opacity="0.99"/>
</svg>
